<svg width="174" height="403" viewBox="0 0 174 403" fill="none" xmlns="http://www.w3.org/2000/svg">
<mask id="mask0_1_5410" style="mask-type:alpha" maskUnits="userSpaceOnUse" x="-2" y="0" width="1920" height="404">
<rect x="-2" width="174" height="404" fill="#222220"/>
</mask>
<g mask="url(#mask0_1_5410)">
<g style="mix-blend-mode:screen">
<g style="mix-blend-mode:screen">
<path d="M84.1718 405.093L84.3946 405H84.5246C84.842 404.747 85.0484 404.381 85.1002 403.979C85.1365 403.632 85.0453 403.285 84.8436 403.001C84.6419 402.717 84.3436 402.517 84.0046 402.437H83.6147H83.3547H83.2433H83.0947H83.0019C82.8493 402.551 82.7225 402.696 82.6297 402.863C82.5369 403.029 82.4802 403.213 82.4634 403.403C82.4404 403.672 82.4883 403.942 82.6024 404.186C82.7164 404.431 82.8926 404.641 83.1133 404.796H83.2619H83.4661H83.6332H84.1718V405.093Z" fill="#DFCBB3"/>
</g>
<g style="mix-blend-mode:screen">
<path d="M21.9457 399.299H22.0757H22.28H22.7814H22.8928C23.1226 399.27 23.3406 399.181 23.5241 399.039L23.6727 398.891L23.8027 398.649V398.463V397.962V397.814C23.7666 397.574 23.6778 397.346 23.5427 397.145L23.3941 397.015L23.1342 396.867H22.9485H22.4471H22.2243L22.0757 396.737L21.7229 396.514H21.5372H21.2772H21.073C20.6653 396.601 20.299 396.824 20.0331 397.145L19.8288 397.405V397.554V397.776V397.944V398.333V398.501L19.9217 398.705V398.853C20.0781 399.041 20.2741 399.192 20.4956 399.294C20.7172 399.397 20.9587 399.449 21.203 399.448C21.4593 399.465 21.7157 399.414 21.9457 399.299Z" fill="#D59C38"/>
</g>
<g style="mix-blend-mode:screen">
<path d="M27.4608 363.386L27.2008 363.887V364.147V364.537L27.2937 364.797L27.4236 365.002V365.132V365.354C27.5943 365.775 27.8769 366.141 28.2407 366.413L28.5192 366.506H28.9463H29.2434L29.7263 366.171L29.9119 365.911L30.0419 365.503V365.206V364.927C30.0419 364.742 29.9305 364.537 29.8562 364.333C29.736 363.997 29.5215 363.702 29.2382 363.485C28.955 363.268 28.6151 363.137 28.2593 363.107H27.9807L27.6465 363.293L27.4608 363.386Z" fill="#662B02"/>
</g>
<g style="mix-blend-mode:screen">
<path d="M12.7353 403.459L12.8467 403.719V403.83V403.96L12.9396 404.053L13.181 404.257H13.3481H13.4781C13.7294 404.307 13.9895 404.289 14.2312 404.204C14.473 404.119 14.6875 403.971 14.8522 403.774C15.0114 403.566 15.1153 403.32 15.1543 403.06C15.1932 402.8 15.166 402.535 15.0751 402.289C14.9964 402.077 14.87 401.887 14.7057 401.732C14.5415 401.578 14.3438 401.463 14.128 401.397C13.9413 401.343 13.7449 401.329 13.5525 401.358C13.36 401.387 13.1762 401.457 13.0139 401.565C12.7302 401.782 12.5425 402.102 12.4905 402.455C12.4385 402.809 12.5263 403.169 12.7353 403.459Z" fill="#F9F6D2"/>
</g>
<g style="mix-blend-mode:screen">
<path d="M60.8672 374.806V374.602V374.323V374.119V373.952V373.84V373.618L60.7186 373.135L60.6072 372.949L60.3658 372.726L60.1801 372.596C59.9932 372.521 59.7921 372.489 59.5911 372.5C59.3901 372.512 59.1941 372.567 59.0169 372.663C58.8398 372.759 58.6858 372.892 58.5659 373.054C58.4461 373.216 58.3632 373.402 58.3231 373.599L58.4717 373.915L58.3603 374.156L58.5831 374.695V374.917C58.7094 375.142 58.897 375.326 59.1239 375.447C59.3508 375.569 59.6076 375.623 59.8644 375.604C60.0876 375.573 60.2983 375.482 60.4746 375.342C60.651 375.202 60.7865 375.016 60.8672 374.806Z" fill="#EADECF"/>
</g>
<g style="mix-blend-mode:screen">
<path d="M26.7553 372.021H26.9224L27.1638 371.873L27.3123 371.743L27.5537 371.39V371.223V370.944V370.758C27.5306 370.533 27.4567 370.316 27.3378 370.123C27.2188 369.93 27.0577 369.766 26.8667 369.644H26.7367H26.4024H26.0496C25.7308 369.747 25.4632 369.968 25.3011 370.261C25.139 370.554 25.0946 370.898 25.1769 371.223C25.2975 371.525 25.5245 371.773 25.8151 371.92C26.1058 372.067 26.4401 372.103 26.7553 372.021Z" fill="#C47F1E"/>
</g>
<g style="mix-blend-mode:screen">
<path d="M-2.49156 405.613L-2.36158 405.836L-2.12018 406.096L-1.89734 406.226L-1.3774 406.356H-1.136L-0.838886 406.263L-0.708901 406.374L-0.430361 406.523H-0.207526H0.405264C0.700924 406.506 0.98515 406.403 1.22232 406.226C1.44877 406.034 1.60077 405.77 1.65169 405.478C1.70261 405.186 1.64922 404.885 1.50086 404.629L1.38944 404.499L1.22232 404.332L1.07376 404.239L0.702375 404.072H0.55382H0.386695V403.756C0.391339 403.491 0.339046 403.227 0.233339 402.984C0.127632 402.74 -0.0290323 402.522 -0.226096 402.345L-0.467498 402.233H-0.857456H-1.11743L-1.6188 402.456L-1.84163 402.623L-2.0459 402.92L-2.13874 403.18C-2.17306 403.366 -2.22916 403.546 -2.30587 403.719C-2.56725 404.314 -2.63229 404.978 -2.49156 405.613Z" fill="#E7B851"/>
</g>
<g style="mix-blend-mode:screen">
<path d="M14.908 381.138V381.38V381.565C15.0206 381.835 15.2013 382.071 15.4324 382.25C15.6635 382.429 15.9371 382.545 16.2264 382.587C16.4772 382.627 16.7341 382.608 16.9761 382.531C17.218 382.453 17.4384 382.32 17.6191 382.141C17.8665 381.907 18.0506 381.614 18.1545 381.289C18.2584 380.964 18.2786 380.619 18.2133 380.284C18.138 379.987 17.9848 379.714 17.7694 379.496C17.554 379.277 17.2842 379.12 16.9877 379.04H16.8206H16.5606H16.3749L16.0036 379.226H15.855L15.6693 379.43V379.541L15.5393 379.709C15.2515 380.019 15.0582 380.406 14.9822 380.823L14.908 381.138Z" fill="#EADECF"/>
</g>
<g style="mix-blend-mode:screen">
<path d="M7.35016 378.26C7.13837 378.308 6.93856 378.399 6.76296 378.526C6.58736 378.654 6.43964 378.816 6.32884 379.003V379.189V379.449V379.653L6.44026 380.061V380.228L6.58881 380.433L6.7188 380.563C6.93789 380.706 7.18468 380.8 7.44301 380.841L7.74012 380.953H7.96295H8.44575H8.66859L8.92856 380.786L9.09568 380.618C9.30554 380.288 9.37645 379.888 9.293 379.505C9.20954 379.123 8.97847 378.789 8.65002 378.576C8.46788 378.434 8.2579 378.333 8.03387 378.279C7.80984 378.224 7.57683 378.218 7.35016 378.26Z" fill="#793903"/>
</g>
<g style="mix-blend-mode:screen">
<path d="M12.3268 383.069L12.4568 382.865V382.717C12.5536 382.326 12.4936 381.912 12.2897 381.565C12.1132 381.249 11.8206 381.015 11.474 380.911C11.1274 380.807 10.754 380.842 10.4327 381.008H10.3027L10.117 381.212V381.305V381.454V381.547C10.0245 381.924 10.0776 382.321 10.2656 382.661C10.4153 382.887 10.6197 383.072 10.8599 383.199C11.1001 383.326 11.3683 383.39 11.6397 383.385H11.7883H12.0111H12.1597L12.4568 383.144L12.3268 383.069Z" fill="#C47F1E"/>
</g>
<g style="mix-blend-mode:screen">
<path d="M38.8253 313.769L38.9738 313.528V313.416V313.249V312.692V312.507V312.395C38.862 312.166 38.6876 311.973 38.4708 311.838C38.2539 311.703 38.0035 311.632 37.7483 311.634C37.4852 311.631 37.2263 311.699 36.9979 311.829C36.7695 311.96 36.5799 312.149 36.4484 312.377C36.3296 312.57 36.2591 312.789 36.243 313.015C36.2268 313.241 36.2654 313.468 36.3556 313.676C36.4228 313.856 36.5321 314.018 36.6742 314.147C36.8163 314.276 36.9872 314.369 37.1726 314.419C37.4799 314.532 37.8178 314.528 38.1224 314.408C38.427 314.288 38.6771 314.061 38.8253 313.769Z" fill="#9F5504"/>
</g>
<g style="mix-blend-mode:screen">
<path d="M52.4924 334.715V335.105V335.291V335.551V335.718L52.7153 336.071L52.8453 336.201L53.0495 336.35H53.2167C53.425 336.411 53.6444 336.427 53.8594 336.395C54.0743 336.363 54.2796 336.284 54.4608 336.164C54.6319 336.043 54.7762 335.889 54.8848 335.71C54.9935 335.531 55.0641 335.331 55.0922 335.124V334.808V334.548L54.9993 334.381L54.7579 334.065L54.6094 333.936L54.3865 333.806H54.2194H53.8109H53.6252H53.3652H53.1795L52.8267 334.047L52.6039 334.307L52.4739 334.53L52.4924 334.715Z" fill="#431B06"/>
</g>
<g style="mix-blend-mode:screen">
<path d="M9.35554 369.774L9.78264 369.422L9.91262 369.254L10.0426 368.976V368.79C10.0622 368.569 10.0324 368.345 9.95535 368.137C9.87829 367.928 9.75587 367.739 9.59694 367.583C9.4475 367.449 9.26946 367.351 9.07637 367.297C8.88329 367.242 8.68027 367.232 8.48278 367.268H8.33422L8.12996 367.379H7.99997L7.74 367.658L7.62858 367.787V368.01V368.177C7.59344 368.501 7.66523 368.826 7.83293 369.105C8.00064 369.383 8.25501 369.599 8.55705 369.719H8.81703H9.18841L9.35554 369.774Z" fill="#9F5504"/>
</g>
<g style="mix-blend-mode:screen">
<path d="M-1.45173 396.514L-1.34031 396.644H-1.24747L-0.968927 396.848H-0.857509H-0.708954H-0.578969C-0.327325 396.881 -0.071476 396.837 0.154235 396.721C0.379946 396.605 0.564718 396.422 0.683752 396.198C0.830371 395.938 0.896303 395.64 0.873156 395.343C0.850008 395.045 0.738828 394.761 0.553766 394.527L0.368072 394.378L0.0523915 394.23H-0.189011H-0.690384H-0.931787L-1.21033 394.415L-1.37745 394.583C-1.53424 394.804 -1.63042 395.063 -1.65648 395.334C-1.68253 395.604 -1.63756 395.876 -1.52601 396.124L-1.45173 396.514Z" fill="#F9DD85"/>
</g>
<g style="mix-blend-mode:screen">
<path d="M31.4532 315.737V315.477V315.273C31.3817 314.948 31.1868 314.664 30.9096 314.48C30.6323 314.297 30.2946 314.228 29.9677 314.289H29.8005L29.5963 314.4L29.4663 314.512L29.3177 314.623L29.132 314.809V314.957L28.9835 315.292V315.44V315.83C29.027 316.022 29.1087 316.203 29.2235 316.362C29.3383 316.522 29.484 316.656 29.652 316.759C29.824 316.852 30.0136 316.908 30.2086 316.924C30.4036 316.94 30.5998 316.915 30.7847 316.851L31.1004 316.721L31.249 316.61L31.4347 316.406V316.239L31.5646 315.83L31.4532 315.737Z" fill="#E3D1BD"/>
</g>
<g style="mix-blend-mode:screen">
<path d="M-1.7674 314.531L-1.93453 314.661L-2.12022 314.884L-2.23164 315.069C-2.35621 315.246 -2.43356 315.451 -2.45631 315.665C-2.47907 315.88 -2.44647 316.097 -2.36163 316.295L-2.25021 316.481L-2.02738 316.685L-1.86025 316.778L-1.34031 316.963H-1.24746C-0.938363 316.977 -0.632884 316.893 -0.374699 316.722L-0.226144 316.611L-0.114728 316.443L0.0152588 316.184V315.998V315.385V315.144L-0.0961584 314.958C-0.27946 314.701 -0.547811 314.517 -0.853693 314.439C-1.15957 314.361 -1.48325 314.393 -1.7674 314.531Z" fill="#D6BDA1"/>
</g>
<g style="mix-blend-mode:screen">
<path d="M24.7497 362.161H24.6011H24.3783H23.5241H23.3198L23.0599 362.291L22.9113 362.402C22.6856 362.65 22.5414 362.961 22.4983 363.293C22.4551 363.625 22.515 363.962 22.6699 364.259L22.8928 364.389L23.227 364.575L23.4498 364.76H24.0255H24.2855L24.5826 364.575L24.3969 364.278L24.7497 364.389L24.5269 364.203H24.434L24.824 364.445C24.9896 364.304 25.1209 364.127 25.2078 363.927C25.2947 363.728 25.3349 363.511 25.3253 363.294C25.34 363.07 25.2943 362.847 25.193 362.648C25.0917 362.449 24.9386 362.28 24.7497 362.161Z" fill="#F9D46B"/>
</g>
<g style="mix-blend-mode:screen">
<path d="M13.2924 319.043L13.6081 319.191H13.9795H14.1652L14.7037 319.024L14.9265 318.857L15.1679 318.56L15.2793 318.319V318.226C15.3374 318.029 15.3537 317.823 15.3271 317.62C15.3005 317.416 15.2316 317.221 15.1249 317.046C15.0181 316.871 14.876 316.72 14.7075 316.604C14.539 316.487 14.3479 316.407 14.1466 316.369H13.9609H13.7195H13.5524L13.2181 316.555L13.0696 316.666L12.9024 316.852V317.019C12.7285 317.35 12.6723 317.731 12.7432 318.099C12.814 318.467 13.0077 318.8 13.2924 319.043Z" fill="#EADECF"/>
</g>
<g style="mix-blend-mode:screen">
<path d="M3.02364 309.74L3.13506 309.535V309.368C3.19191 308.972 3.09925 308.568 2.87508 308.236C2.67216 307.949 2.37065 307.746 2.02812 307.668C1.6856 307.589 1.32605 307.639 1.01814 307.808L0.906727 307.92L0.609617 308.31V308.458V308.57C0.546808 308.947 0.633412 309.333 0.851019 309.647C1.00708 309.87 1.22078 310.046 1.46933 310.158C1.71787 310.269 1.99194 310.311 2.26229 310.278H2.42942L2.46656 310.167L2.59654 310.074L2.87508 309.833L3.02364 309.74Z" fill="#E7D8C6"/>
</g>
<path d="M156.955 804.34L189.782 771.514L-483.816 97.9214L-516.642 130.748L156.955 804.34Z" fill="url(#paint0_linear_1_5410)"/>
<path d="M183.877 777.413L189.786 771.504L-483.812 97.9116L-489.721 103.82L183.877 777.413Z" fill="url(#paint1_linear_1_5410)"/>
<path d="M340.592 688.423L342.64 686.375L-373.316 -29.5769L-375.365 -27.5286L340.592 688.423Z" fill="url(#paint2_linear_1_5410)"/>
<path d="M244.02 788.685L246.069 786.636L-469.888 70.6848L-471.936 72.7331L244.02 788.685Z" fill="url(#paint3_linear_1_5410)"/>
<path d="M127.957 851.831L130.005 849.783L-585.952 133.831L-588 135.879L127.957 851.831Z" fill="url(#paint4_linear_1_5410)"/>
<path d="M376.788 689.677L378.836 687.628L-337.12 -28.3233L-339.169 -26.2749L376.788 689.677Z" fill="url(#paint5_linear_1_5410)"/>
<path d="M451.196 688L453.245 685.951L-262.712 -30.0003L-264.76 -27.9519L451.196 688Z" fill="url(#paint6_linear_1_5410)"/>
<path d="M201.814 836.494L203.863 834.446L-512.094 118.494L-514.142 120.542L201.814 836.494Z" fill="url(#paint7_linear_1_5410)"/>
<g style="mix-blend-mode:screen">
<path d="M-121.15 378.557C-208.166 291.542 -272.825 215.148 -265.583 207.869C-258.341 200.589 -181.909 265.266 -94.8931 352.282C-7.87682 439.297 56.8004 515.692 49.5398 522.971C42.2792 530.25 -34.134 465.573 -121.15 378.557Z" fill="url(#paint8_radial_1_5410)"/>
</g>
<!-- <g style="mix-blend-mode:screen">
<path d="M-103.509 265.285C-190.525 178.269 -255.184 101.875 -247.942 94.5959C-240.7 87.3167 -164.268 151.993 -77.2521 239.009C9.76418 326.025 74.4414 402.419 67.1808 409.698C59.9201 416.977 -16.493 352.3 -103.509 265.285Z" fill="url(#paint9_radial_1_5410)"/>
</g> -->
<g style="mix-blend-mode:screen">
<path d="M-97.8084 259.528C-146.683 210.617 -183.042 167.647 -178.957 163.469C-174.871 159.291 -131.92 195.836 -82.9529 244.766C-33.9853 293.696 2.28072 336.647 -1.80455 340.732C-5.88982 344.817 -48.8409 308.458 -97.8084 259.528Z" fill="url(#paint10_radial_1_5410)"/>
</g>
</g>
</g>
<defs>
<linearGradient id="paint0_linear_1_5410" x1="234.924" y1="846.857" x2="-573.912" y2="43.2668" gradientUnits="userSpaceOnUse">
<stop stop-color="#F4EFEA"/>
<stop offset="0.06" stop-color="#F3EDE8"/>
<stop offset="0.53" stop-color="#EEE3D8"/>
<stop offset="0.99" stop-color="#E3D1BD"/>
</linearGradient>
<linearGradient id="paint1_linear_1_5410" x1="-406.683" y1="180.949" x2="1.33312" y2="588.968" gradientUnits="userSpaceOnUse">
<stop stop-color="#F4E0AE"/>
<stop offset="0.2" stop-color="#EACD8C"/>
<stop offset="0.32" stop-color="#E5C47C"/>
<stop offset="0.36" stop-color="#E0BE77"/>
<stop offset="0.42" stop-color="#D2AD69"/>
<stop offset="0.5" stop-color="#BC9152"/>
<stop offset="0.54" stop-color="#AA7A40"/>
<stop offset="0.62" stop-color="#C09657"/>
<stop offset="0.72" stop-color="#D4AF6B"/>
<stop offset="0.8" stop-color="#E1BF78"/>
<stop offset="0.87" stop-color="#E5C47C"/>
</linearGradient>
<linearGradient id="paint2_linear_1_5410" x1="-289.333" y1="56.6114" x2="144.34" y2="490.287" gradientUnits="userSpaceOnUse">
<stop stop-color="#F4E0AE"/>
<stop offset="0.2" stop-color="#EACD8C"/>
<stop offset="0.32" stop-color="#E5C47C"/>
<stop offset="0.36" stop-color="#E0BE77"/>
<stop offset="0.42" stop-color="#D2AD69"/>
<stop offset="0.5" stop-color="#BC9152"/>
<stop offset="0.54" stop-color="#AA7A40"/>
<stop offset="0.62" stop-color="#C09657"/>
<stop offset="0.72" stop-color="#D4AF6B"/>
<stop offset="0.8" stop-color="#E1BF78"/>
<stop offset="0.87" stop-color="#E5C47C"/>
</linearGradient>
<linearGradient id="paint3_linear_1_5410" x1="-385.905" y1="156.873" x2="47.7679" y2="590.549" gradientUnits="userSpaceOnUse">
<stop stop-color="#F4E0AE"/>
<stop offset="0.2" stop-color="#EACD8C"/>
<stop offset="0.32" stop-color="#E5C47C"/>
<stop offset="0.36" stop-color="#E0BE77"/>
<stop offset="0.42" stop-color="#D2AD69"/>
<stop offset="0.5" stop-color="#BC9152"/>
<stop offset="0.54" stop-color="#AA7A40"/>
<stop offset="0.62" stop-color="#C09657"/>
<stop offset="0.72" stop-color="#D4AF6B"/>
<stop offset="0.8" stop-color="#E1BF78"/>
<stop offset="0.87" stop-color="#E5C47C"/>
</linearGradient>
<linearGradient id="paint4_linear_1_5410" x1="-501.955" y1="220.033" x2="-68.2824" y2="653.708" gradientUnits="userSpaceOnUse">
<stop stop-color="#F4E0AE"/>
<stop offset="0.2" stop-color="#EACD8C"/>
<stop offset="0.32" stop-color="#E5C47C"/>
<stop offset="0.36" stop-color="#E0BE77"/>
<stop offset="0.42" stop-color="#D2AD69"/>
<stop offset="0.5" stop-color="#BC9152"/>
<stop offset="0.54" stop-color="#AA7A40"/>
<stop offset="0.62" stop-color="#C09657"/>
<stop offset="0.72" stop-color="#D4AF6B"/>
<stop offset="0.8" stop-color="#E1BF78"/>
<stop offset="0.87" stop-color="#E5C47C"/>
</linearGradient>
<linearGradient id="paint5_linear_1_5410" x1="-253.032" y1="57.8126" x2="180.641" y2="491.489" gradientUnits="userSpaceOnUse">
<stop stop-color="#F4E0AE"/>
<stop offset="0.2" stop-color="#EACD8C"/>
<stop offset="0.32" stop-color="#E5C47C"/>
<stop offset="0.36" stop-color="#E0BE77"/>
<stop offset="0.42" stop-color="#D2AD69"/>
<stop offset="0.5" stop-color="#BC9152"/>
<stop offset="0.54" stop-color="#AA7A40"/>
<stop offset="0.62" stop-color="#C09657"/>
<stop offset="0.72" stop-color="#D4AF6B"/>
<stop offset="0.8" stop-color="#E1BF78"/>
<stop offset="0.87" stop-color="#E5C47C"/>
</linearGradient>
<linearGradient id="paint6_linear_1_5410" x1="-178.716" y1="56.175" x2="254.957" y2="489.851" gradientUnits="userSpaceOnUse">
<stop stop-color="#F4E0AE"/>
<stop offset="0.2" stop-color="#EACD8C"/>
<stop offset="0.32" stop-color="#E5C47C"/>
<stop offset="0.36" stop-color="#E0BE77"/>
<stop offset="0.42" stop-color="#D2AD69"/>
<stop offset="0.5" stop-color="#BC9152"/>
<stop offset="0.54" stop-color="#AA7A40"/>
<stop offset="0.62" stop-color="#C09657"/>
<stop offset="0.72" stop-color="#D4AF6B"/>
<stop offset="0.8" stop-color="#E1BF78"/>
<stop offset="0.87" stop-color="#E5C47C"/>
</linearGradient>
<linearGradient id="paint7_linear_1_5410" x1="-427.993" y1="204.617" x2="5.6803" y2="638.293" gradientUnits="userSpaceOnUse">
<stop stop-color="#F4E0AE"/>
<stop offset="0.2" stop-color="#EACD8C"/>
<stop offset="0.32" stop-color="#E5C47C"/>
<stop offset="0.36" stop-color="#E0BE77"/>
<stop offset="0.42" stop-color="#D2AD69"/>
<stop offset="0.5" stop-color="#BC9152"/>
<stop offset="0.54" stop-color="#AA7A40"/>
<stop offset="0.62" stop-color="#C09657"/>
<stop offset="0.72" stop-color="#D4AF6B"/>
<stop offset="0.8" stop-color="#E1BF78"/>
<stop offset="0.87" stop-color="#E5C47C"/>
</linearGradient>
<radialGradient id="paint8_radial_1_5410" cx="0" cy="0" r="1" gradientUnits="userSpaceOnUse" gradientTransform="translate(-50.6922 308.063) rotate(135) scale(17.831 222.888)">
<stop stop-color="#8C4703"/>
<stop offset="0.09" stop-color="#7B3F03"/>
<stop offset="0.49" stop-color="#391D01"/>
<stop offset="0.78" stop-color="#100800"/>
<stop offset="0.93"/>
</radialGradient>
<radialGradient id="paint9_radial_1_5410" cx="0" cy="0" r="1" gradientUnits="userSpaceOnUse" gradientTransform="translate(-35.6477 197.377) rotate(135) scale(17.831 222.888)">
<stop stop-color="#8C4703"/>
<stop offset="0.09" stop-color="#7B3F03"/>
<stop offset="0.49" stop-color="#391D01"/>
<stop offset="0.78" stop-color="#100800"/>
<stop offset="0.93"/>
</radialGradient>
<radialGradient id="paint10_radial_1_5410" cx="0" cy="0" r="1" gradientUnits="userSpaceOnUse" gradientTransform="translate(-181.888 357.275) rotate(135) scale(11.1472 124.848)">
<stop stop-color="#F9EEB8"/>
<stop offset="0.04" stop-color="#EBE1AE"/>
<stop offset="0.23" stop-color="#A59D7A"/>
<stop offset="0.41" stop-color="#6A654E"/>
<stop offset="0.58" stop-color="#3C3A2D"/>
<stop offset="0.72" stop-color="#1B1A14"/>
<stop offset="0.85" stop-color="#070705"/>
<stop offset="0.93"/>
</radialGradient>
</defs>
</svg>
